<?xml version="1.0" encoding="UTF-8" standalone="no"?>
<!-- Created with Inkscape (http://www.inkscape.org/) -->

<svg
   xmlns:dc="http://purl.org/dc/elements/1.1/"
   xmlns:cc="http://creativecommons.org/ns#"
   xmlns:rdf="http://www.w3.org/1999/02/22-rdf-syntax-ns#"
   xmlns:svg="http://www.w3.org/2000/svg"
   xmlns="http://www.w3.org/2000/svg"
   xmlns:sodipodi="http://sodipodi.sourceforge.net/DTD/sodipodi-0.dtd"
   xmlns:inkscape="http://www.inkscape.org/namespaces/inkscape"
   width="90mm"
   height="90mm"
   viewBox="0 0 90 90"
   version="1.1"
   id="svg43094"
   inkscape:version="0.92.4 (5da689c313, 2019-01-14)"
   sodipodi:docname="PoundPin favicon.svg">
  <defs
     id="defs43088" />
  <sodipodi:namedview
     id="base"
     pagecolor="#ffffff"
     bordercolor="#666666"
     borderopacity="1.0"
     inkscape:pageopacity="0.0"
     inkscape:pageshadow="2"
     inkscape:zoom="0.7"
     inkscape:cx="-332.85714"
     inkscape:cy="445.71429"
     inkscape:document-units="mm"
     inkscape:current-layer="layer1"
     showgrid="false"
     inkscape:window-width="1920"
     inkscape:window-height="1001"
     inkscape:window-x="-9"
     inkscape:window-y="1341"
     inkscape:window-maximized="1" />
  <metadata
     id="metadata43091">
    <rdf:RDF>
      <cc:Work
         rdf:about="">
        <dc:format>image/svg+xml</dc:format>
        <dc:type
           rdf:resource="http://purl.org/dc/dcmitype/StillImage" />
        <dc:title></dc:title>
      </cc:Work>
    </rdf:RDF>
  </metadata>
  <g
     inkscape:label="Layer 1"
     inkscape:groupmode="layer"
     id="layer1"
     transform="translate(0,-207)">
    <path
       class="st0"
       d="m 45.317458,213.34631 v 0.1323 c -14.97542,0.13229 -27.06688,12.32958 -27.06688,27.33145 0,1.98438 0.18521,3.96875 0.60854,5.90021 0.42334,1.93146 1.19063,3.73063 1.905,5.55625 3.175,8.06979 10.18646,22.27792 24.5798,39.18479 l 0.0529,-0.0529 c 14.34041,-16.85395 21.37833,-31.19437 24.55333,-39.26416 0.71437,-1.82562 1.48166,-3.62479 1.905,-5.55625 0.42333,-1.93146 0.60854,-3.91583 0.60854,-5.90021 0,-15.02833 -12.14438,-27.22562 -27.14625,-27.33146 z m -11.48292,48.20708 c 0,-0.13229 0,-0.26458 0,-0.39687 0,-0.44979 0.0265,-0.87313 0.0265,-1.32292 0,-0.26458 0,-0.52916 0,-0.79375 0,-0.13229 0.0265,-0.21166 0.15875,-0.29104 0.79375,-0.44979 1.56104,-0.92604 2.24896,-1.53458 1.79917,-1.56104 3.04271,-3.46604 3.57187,-5.79438 0.15875,-0.635 0.15875,-1.29645 0.15875,-1.93145 -0.0265,-0.9525 -0.0529,-1.905 -0.10583,-2.8575 0,-0.29104 -0.0794,-0.55563 -0.10583,-0.87313 -1.87854,0 -3.75709,0 -5.63563,0 0,-1.16416 0,-2.27541 0,-3.41312 0.0794,0 0.13229,0 0.21167,0 1.50812,0 3.01625,-0.0265 4.52437,-0.0265 0.34396,0 0.3175,-0.0265 0.26459,-0.34396 -0.26459,-1.77271 -0.55563,-3.54542 -0.52917,-5.31813 0.0265,-1.48166 0.18521,-2.93687 0.74083,-4.3127 1.05834,-2.64584 2.96334,-4.445 5.60917,-5.47688 1.5875,-0.60854 3.25438,-0.79375 4.97417,-0.71437 1.24354,0.0794 2.46062,0.23812 3.65125,0.66145 0.42333,0.15875 0.84666,0.37042 1.27,0.52917 0.13229,0.0529 0.15875,0.13229 0.10583,0.26458 -0.3175,1.03188 -0.60854,2.06375 -0.89958,3.12209 -0.0529,0.18521 -0.13229,0.18521 -0.26459,0.13229 -0.55562,-0.21167 -1.11125,-0.44979 -1.69333,-0.58208 -1.53458,-0.37042 -3.06917,-0.47625 -4.63021,-0.18521 -1.905,0.37041 -3.175,1.50812 -3.83646,3.30729 -0.39687,1.11125 -0.52916,2.24896 -0.5027,3.43958 0.0265,1.77271 0.1852,3.54542 0.55562,5.31813 0,0.0529 0.0265,0.10583 0.0529,0.18521 2.61938,0 5.23875,0 7.85813,0 0,1.1377 0,2.2225 0,3.38666 -2.48709,0 -4.94771,0 -7.4348,0 0.0265,0.39688 0.0794,0.76729 0.10584,1.13771 0.13229,1.77271 0.10583,3.51896 -0.42334,5.21229 -0.58208,1.95792 -1.66687,3.62479 -3.20145,5.02708 -0.15875,0.13229 -0.29105,0.26459 -0.42334,0.44979 5.3975,0.10584 10.795,0.0794 16.21896,0.0794 0,0.0794 0,0.15875 0,0.21167 0,1.16417 0,2.30188 0,3.46604 0,0.0794 0,0.13229 0.0265,0.21167 -7.59354,0.0265 -15.10771,0.0265 -22.64833,0.0265 z"
       id="path38570"
       inkscape:connector-curvature="0"
       style="fill:#253368;stroke-width:0.26458332" />
  </g>
</svg>
