<?xml version="1.0" encoding="UTF-8" standalone="no"?>
<!-- Generator: Adobe Illustrator 21.0.0, SVG Export Plug-In . SVG Version: 6.00 Build 0)  -->

<svg
   xmlns:dc="http://purl.org/dc/elements/1.1/"
   xmlns:cc="http://creativecommons.org/ns#"
   xmlns:rdf="http://www.w3.org/1999/02/22-rdf-syntax-ns#"
   xmlns:svg="http://www.w3.org/2000/svg"
   xmlns="http://www.w3.org/2000/svg"
   xmlns:sodipodi="http://sodipodi.sourceforge.net/DTD/sodipodi-0.dtd"
   xmlns:inkscape="http://www.inkscape.org/namespaces/inkscape"
   version="1.1"
   id="Layer_1"
   x="0px"
   y="0px"
   width="1050"
   height="381"
   viewBox="0 0 1050 381"
   xml:space="preserve"
   sodipodi:docname="PensionAdvisers logo2.svg"
   inkscape:version="0.92.4 (5da689c313, 2019-01-14)"><metadata
   id="metadata38611"><rdf:RDF><cc:Work
       rdf:about=""><dc:format>image/svg+xml</dc:format><dc:type
         rdf:resource="http://purl.org/dc/dcmitype/StillImage" /><dc:title></dc:title></cc:Work></rdf:RDF></metadata><defs
   id="defs38609" /><sodipodi:namedview
   pagecolor="#ffffff"
   bordercolor="#666666"
   borderopacity="1"
   objecttolerance="10"
   gridtolerance="10"
   guidetolerance="10"
   inkscape:pageopacity="0"
   inkscape:pageshadow="2"
   inkscape:window-width="2109"
   inkscape:window-height="924"
   id="namedview38607"
   showgrid="false"
   inkscape:zoom="0.6675088"
   inkscape:cx="500"
   inkscape:cy="200.37848"
   inkscape:window-x="19"
   inkscape:window-y="223"
   inkscape:window-maximized="0"
   inkscape:current-layer="Layer_1" />
<style
   type="text/css"
   id="style38568">
	.st0{fill:#253368;}
</style>
<path
   class="st0"
   d="m 180.26972,45.006377 v 0.5 c -56.6,0.5 -102.299999,46.6 -102.299999,103.300003 0,7.5 0.7,15 2.3,22.3 1.6,7.3 4.5,14.1 7.2,21 12,30.5 38.499999,84.2 92.899999,148.1 l 0.2,-0.2 c 54.2,-63.7 80.8,-117.9 92.8,-148.4 2.7,-6.9 5.6,-13.7 7.2,-21 1.6,-7.3 2.3,-14.8 2.3,-22.3 0,-56.800003 -45.9,-102.900003 -102.6,-103.300003 z m -43.4,182.200003 c 0,-0.5 0,-1 0,-1.5 0,-1.7 0.1,-3.3 0.1,-5 0,-1 0,-2 0,-3 0,-0.5 0.1,-0.8 0.6,-1.1 3,-1.7 5.9,-3.5 8.5,-5.8 6.8,-5.9 11.5,-13.1 13.5,-21.9 0.6,-2.4 0.6,-4.9 0.6,-7.3 -0.1,-3.6 -0.2,-7.2 -0.4,-10.8 0,-1.1 -0.3,-2.1 -0.4,-3.3 -7.1,0 -14.2,0 -21.3,0 0,-4.4 0,-8.6 0,-12.9 0.3,0 0.5,0 0.8,0 5.7,0 11.4,-0.1 17.1,-0.1 1.3,0 1.2,-0.1 1,-1.3 -1,-6.7 -2.1,-13.4 -2,-20.1 0.1,-5.6 0.7,-11.1 2.8,-16.3 4,-10 11.2,-16.8 21.2,-20.700003 6,-2.3 12.3,-3 18.8,-2.7 4.7,0.3 9.3,0.9 13.8,2.5 1.6,0.6 3.2,1.4 4.8,2 0.5,0.2 0.6,0.5 0.4,1 -1.2,3.900003 -2.3,7.800003 -3.4,11.800003 -0.2,0.7 -0.5,0.7 -1,0.5 -2.1,-0.8 -4.2,-1.7 -6.4,-2.2 -5.8,-1.4 -11.6,-1.8 -17.5,-0.7 -7.2,1.4 -12,5.7 -14.5,12.5 -1.5,4.2 -2,8.5 -1.9,13 0.1,6.7 0.7,13.4 2.1,20.1 0,0.2 0.1,0.4 0.2,0.7 9.9,0 19.8,0 29.7,0 0,4.3 0,8.4 0,12.8 -9.4,0 -18.7,0 -28.1,0 0.1,1.5 0.3,2.9 0.4,4.3 0.5,6.7 0.4,13.3 -1.6,19.7 -2.2,7.4 -6.3,13.7 -12.1,19 -0.6,0.5 -1.1,1 -1.6,1.7 20.4,0.4 40.8,0.3 61.3,0.3 0,0.3 0,0.6 0,0.8 0,4.4 0,8.7 0,13.1 0,0.3 0,0.5 0.1,0.8 -28.7,0.1 -57.1,0.1 -85.6,0.1 z"
   id="path38570"
   inkscape:connector-curvature="0"
   style="fill:#253368" />
<g
   id="g38586"
   transform="translate(23.969722,-307.39362)">
	<path
   class="st0"
   d="M 310.8,494.4 H 282.3 V 385.3 h 50.2 c 11.7,0 21.5,3.6 29.3,10.9 7.8,7.2 11.7,16.2 11.7,27 0,10.8 -3.9,19.9 -11.8,27.3 -7.8,7.3 -17.5,10.9 -29.1,10.9 h -21.7 v 33 z m 0,-82.9 v 23.7 h 21.7 c 6.4,0 11.4,-5.1 11.4,-12 0,-6.7 -5,-11.7 -11.4,-11.7 z"
   id="path38572"
   inkscape:connector-curvature="0"
   style="fill:#253368" />
	<path
   class="st0"
   d="m 464.7,385.3 v 26.2 h -53.9 v 14.8 h 44.7 v 26.2 h -44.7 v 15.7 h 54.7 v 26.2 H 382.3 V 385.3 Z"
   id="path38574"
   inkscape:connector-curvature="0"
   style="fill:#253368" />
	<path
   class="st0"
   d="M 474.5,494.4 V 385.3 h 25.4 l 46.4,60.3 v -60.3 h 27.4 v 109.1 h -25.4 l -46.4,-60.2 v 60.2 z"
   id="path38576"
   inkscape:connector-curvature="0"
   style="fill:#253368" />
	<path
   class="st0"
   d="m 635.3,415.7 c -1.2,-8.6 -22,-8.7 -21.2,-0.3 0,2.6 2,4.1 4.8,5.8 1.7,0.8 5.5,2.2 7.8,2.8 l 10.4,3.1 c 8.3,2.5 13.7,5 20.6,10 6.9,5 10.8,13.2 10.8,23.7 0,10.8 -3.7,19.5 -11.4,25.9 -7.6,6.4 -17.5,9.7 -29.8,9.7 -11.2,0 -20.9,-2.6 -29.1,-8.1 -8.3,-5.5 -13.6,-12.6 -15.9,-21.2 l 29,-5.9 c 1.2,5.5 7.9,9.5 16.2,9.5 7,0 12.5,-2.8 12.5,-7 0,-2.5 -1.9,-4.1 -4.8,-5.6 -3.4,-1.7 -8.9,-3.7 -14,-5.1 -8.3,-2.6 -12.5,-4.2 -19.5,-8.1 -9.8,-5.8 -15.1,-13.6 -15.9,-27 0,-10.1 3.4,-18.4 10.4,-24.8 7,-6.4 16.1,-9.5 27.3,-9.5 10,0 18.7,2.5 26,7.5 7.5,5 12.2,11.4 14,19.2 z"
   id="path38578"
   inkscape:connector-curvature="0"
   style="fill:#253368" />
	<path
   class="st0"
   d="M 677.7,494.4 V 385.3 h 28.5 v 109.1 z"
   id="path38580"
   inkscape:connector-curvature="0"
   style="fill:#253368" />
	<path
   class="st0"
   d="m 814.7,399.6 c 11.1,10.8 16.5,24.2 16.5,40.2 0,16.1 -5.5,29.5 -16.5,40.2 -11.1,10.8 -24.8,16.2 -41.1,16.2 -16.3,0 -30.1,-5.5 -41.1,-16.2 -11.1,-10.8 -16.5,-24.2 -16.5,-40.2 0,-16.1 5.5,-29.5 16.5,-40.2 11.1,-10.8 24.8,-16.2 41.1,-16.2 16.3,0 30,5.5 41.1,16.2 z m -61.1,61 c 5.5,5.5 12,8.3 19.9,8.3 7.9,0 14.7,-2.8 19.9,-8.4 5.5,-5.6 8.1,-12.5 8.1,-20.7 0,-8.2 -2.6,-15.1 -8.1,-20.6 -5.5,-5.6 -12,-8.4 -19.9,-8.4 -7.9,0 -14.5,2.8 -19.9,8.4 -5.3,5.5 -7.9,12.3 -7.9,20.6 0,8.3 2.6,15.1 7.9,20.8 z"
   id="path38582"
   inkscape:connector-curvature="0"
   style="fill:#253368" />
	<path
   class="st0"
   d="M 840.9,494.4 V 385.3 h 25.4 l 46.4,60.3 v -60.3 h 27.4 v 109.1 h -25.4 l -46.4,-60.2 v 60.2 z"
   id="path38584"
   inkscape:connector-curvature="0"
   style="fill:#253368" />
</g>
<g
   id="g38604"
   transform="translate(23.969722,-307.39362)">
	<path
   class="st0"
   d="m 264.9,609.6 42,-97.2 h 15.3 l 42,97.2 h -19.8 l -7.7,-18.3 h -44.4 l -7.7,18.3 z m 49.8,-70.7 -15,35.3 h 29.8 z"
   id="path38588"
   inkscape:connector-curvature="0"
   style="fill:#253368" />
	<path
   class="st0"
   d="m 373.7,609.6 v -97.2 h 39.8 c 14.6,0 26.8,4.7 36.4,14 9.8,9.3 14.7,20.8 14.7,34.6 0,13.8 -4.9,25.3 -14.7,34.6 -9.7,9.3 -21.9,14 -36.4,14 z m 18.8,-80 v 62.8 h 21 c 9,0 16.5,-3.1 22.6,-9 6,-6.1 9.1,-13.6 9.1,-22.4 0,-8.9 -3.1,-16.4 -9.1,-22.4 -6,-6 -13.6,-9 -22.6,-9 z"
   id="path38590"
   inkscape:connector-curvature="0"
   style="fill:#253368" />
	<path
   class="st0"
   d="m 508.2,609.6 -41.3,-97.2 h 19.8 L 516,583 545.1,512.4 h 19.8 l -41.3,97.2 z"
   id="path38592"
   inkscape:connector-curvature="0"
   style="fill:#253368" />
	<path
   class="st0"
   d="M 574.2,609.6 V 512.4 H 593 v 97.2 z"
   id="path38594"
   inkscape:connector-curvature="0"
   style="fill:#253368" />
	<path
   class="st0"
   d="m 658.7,537.6 c -1.5,-5.1 -8,-9.4 -15.8,-9.4 -8.3,0 -14.9,4.6 -14.9,10.3 0,3.6 2.9,6.7 9,9.2 2.7,1.1 8,2.8 16.1,5.1 6,1.7 8.5,2.2 14.6,5.4 2.9,1.5 5.3,3.3 7,5.1 3.4,3.5 6.6,10 6.6,17.6 0,9.3 -3.4,16.8 -10.2,22.5 -6.7,5.6 -15.4,8.3 -26.2,8.3 -9.7,0 -18.1,-2.2 -24.9,-6.7 -6.9,-4.6 -11.4,-10.1 -13.5,-16.9 l 18.8,-5.6 c 1.5,6.1 9.4,11.2 19.6,11.2 9.9,0 17.7,-4.6 17.7,-11.2 0,-2.8 -1.8,-5.3 -3.5,-6.8 -0.8,-0.7 -2.2,-1.5 -4.1,-2.4 -3.5,-1.7 -4.1,-1.7 -7.8,-2.9 -11.8,-3.5 -19.6,-6.3 -23.7,-8.3 -9.4,-5 -14.2,-12.5 -14.2,-22.4 0,-8.7 3.1,-15.8 9.2,-21.2 6.3,-5.4 14.3,-8.2 24.1,-8.2 8.5,0 16.1,2.1 22.4,6.2 6.3,4 10.5,9.3 12.5,15.6 z"
   id="path38596"
   inkscape:connector-curvature="0"
   style="fill:#253368" />
	<path
   class="st0"
   d="m 767.2,512.4 v 17.2 h -53.5 v 22.2 h 45.8 V 569 h -45.8 v 23.3 h 54.2 v 17.2 h -73 v -97.2 h 72.3 z"
   id="path38598"
   inkscape:connector-curvature="0"
   style="fill:#253368" />
	<path
   class="st0"
   d="m 826.1,512.4 c 9.7,0 17.7,3.1 24.1,9 6.6,6 9.8,13.5 9.8,22.4 0,12.6 -7.3,23.3 -18.6,28.3 l 22.4,37.5 H 843 l -20.6,-34.3 h -22.8 v 34.3 h -18.8 v -97.2 z m -26.6,17.2 v 28.5 h 26.6 c 8.3,0 14.3,-6.1 14.3,-14.3 0,-8.2 -6,-14.2 -14.3,-14.2 z"
   id="path38600"
   inkscape:connector-curvature="0"
   style="fill:#253368" />
	<path
   class="st0"
   d="m 921.9,537.6 c -1.5,-5.1 -8,-9.4 -15.8,-9.4 -8.3,0 -14.9,4.6 -14.9,10.3 0,3.6 2.9,6.7 9,9.2 2.7,1.1 8,2.8 16.1,5.1 6,1.7 8.5,2.2 14.6,5.4 2.9,1.5 5.3,3.3 7,5.1 3.4,3.5 6.6,10 6.6,17.6 0,9.3 -3.4,16.8 -10.2,22.5 -6.7,5.6 -15.4,8.3 -26.2,8.3 -9.7,0 -18.1,-2.2 -24.9,-6.7 -6.9,-4.6 -11.4,-10.1 -13.5,-16.9 l 18.8,-5.6 c 1.5,6.1 9.4,11.2 19.6,11.2 9.9,0 17.7,-4.6 17.7,-11.2 0,-2.8 -1.8,-5.3 -3.5,-6.8 -0.8,-0.7 -2.2,-1.5 -4.1,-2.4 -3.5,-1.7 -4.1,-1.7 -7.8,-2.9 -11.8,-3.5 -19.6,-6.3 -23.7,-8.3 -9.4,-5 -14.2,-12.5 -14.2,-22.4 0,-8.7 3.1,-15.8 9.2,-21.2 6.3,-5.4 14.3,-8.2 24.1,-8.2 8.5,0 16.1,2.1 22.4,6.2 6.3,4 10.5,9.3 12.5,15.6 z"
   id="path38602"
   inkscape:connector-curvature="0"
   style="fill:#253368" />
</g>
<path
   style="fill:#31455f;stroke:none;stroke-width:1.49810755;fill-opacity:1"
   d="m 170.46176,326.9499 c -35.40058,-42.99918 -67.68643,-96.74325 -84.574454,-140.78538 -5.698949,-14.86224 -5.744765,-15.1534 -5.775691,-36.70364 -0.02486,-17.32201 0.535216,-23.39173 2.764704,-29.96215 11.61167,-34.220192 34.713931,-57.618625 67.615181,-68.482026 10.27225,-3.391712 14.66081,-3.971371 30.71121,-4.056462 17.25451,-0.09148 19.74105,0.2632 31.63666,4.512584 30.3443,10.839682 53.62695,34.318367 64.48671,65.029684 3.00013,8.48436 3.44668,12.63003 3.4695,32.20932 l 0.0262,22.47161 -6.93119,17.26428 c -17.10003,42.59291 -43.93488,88.1306 -76.46253,129.7539 -18.00968,23.0457 -15.78864,22.32518 -26.96629,8.74828 z m 52.68796,-107.07796 v -7.49054 h -13.99897 c -7.69944,0 -21.20883,-0.44113 -30.02088,-0.98032 l -16.02191,-0.9803 3.71568,-3.88855 c 6.51341,-6.81642 9.81563,-16.27972 9.85184,-28.23278 l 0.0329,-10.86128 h 14.23202 14.23203 v -6.74148 -6.74149 h -14.89267 c -8.19096,0 -15.30085,-0.66047 -15.79975,-1.46771 -0.49891,-0.80724 -1.0443,-7.71726 -1.212,-15.3556 -0.26628,-12.12911 0.12366,-14.57703 3.07909,-19.32953 1.8612,-2.9929 5.38834,-6.27187 7.8381,-7.28659 4.51539,-1.87034 22.42183,-1.48067 27.13785,0.59055 1.89639,0.83287 2.81771,-0.41634 4.35407,-5.90368 2.28062,-8.1456 1.80916,-8.700254 -9.45485,-11.123259 -15.15668,-3.260357 -29.01897,-0.198498 -38.70029,8.547989 -10.56818,9.54772 -12.55923,15.09105 -12.38242,34.47412 l 0.15374,16.85371 h -8.84994 -8.84994 l 0.45661,7.11601 0.45661,7.11601 10.11223,0.44298 10.11222,0.44298 0.15875,6.2985 c 0.44011,17.46268 -2.19047,24.04304 -13.81787,34.56524 -7.20312,6.51845 -8.81249,8.8378 -8.81249,12.70019 v 4.72536 h 43.44512 43.44512 z"
   id="path47586"
   inkscape:connector-curvature="0" /><path
   style="fill:#31455f;stroke:none;stroke-width:1.49810755;fill-opacity:1"
   d="M 172.0804,329.41046 C 132.85969,281.39809 100.06698,226.2425 83.79617,180.92114 79.164349,168.01948 78.029332,141.73858 81.410993,125.69326 91.467132,77.978858 137.65692,43.605739 187.83815,46.493209 c 24.8695,1.431011 44.65476,10.610778 63.71187,29.560399 12.63722,12.565933 19.33865,22.967787 25.25384,39.198582 3.68273,10.10513 4.00173,12.79362 3.97013,33.45964 -0.0333,21.73489 -0.19594,22.89791 -4.96314,35.47465 -6.84394,18.05561 -26.38753,57.23007 -38.1923,76.55519 -16.87077,27.61849 -50.22791,72.72805 -55.97552,75.69688 -2.19875,1.13573 -3.93778,-0.14232 -9.56263,-7.02809 z m 51.06932,-109.53852 v -7.49054 l -22.09709,-0.0135 c -12.1534,-0.007 -25.66884,-0.44199 -30.03432,-0.96628 l -7.93724,-0.95325 3.87175,-4.04123 c 5.77832,-6.0308 9.75556,-17.95485 9.75556,-29.24736 v -9.72163 h 14.23202 14.23203 v -6.74148 -6.74149 h -14.89267 c -8.38182,0 -15.30029,-0.65956 -15.82505,-1.50865 -0.51282,-0.82975 -1.05822,-7.73978 -1.212,-15.3556 -0.31822,-15.75978 1.93578,-21.94187 9.40907,-25.80646 4.95781,-2.56378 20.29151,-3.04587 26.14108,-0.82187 4.27965,1.62712 5.71371,0.0222 7.52532,-8.4217 0.9527,-4.440531 0.67128,-4.843474 -4.6916,-6.71749 -7.78256,-2.719552 -26.81307,-2.410753 -33.62917,0.545683 -8.42012,3.652172 -17.28805,12.542697 -20.30237,20.354117 -2.06109,5.34117 -2.65038,10.69432 -2.46328,22.37637 l 0.24593,15.3556 h -8.86005 -8.86005 v 6.74149 6.74148 h 10.48675 10.48675 l 0.30047,6.36696 c 0.93029,19.7131 -2.4254,27.21807 -18.02545,40.31373 -3.44648,2.89319 -4.74663,5.25269 -4.74663,8.61412 v 4.62949 h 43.44512 43.44512 z"
   id="path47588"
   inkscape:connector-curvature="0" /><path
   style="fill:#31455f;stroke:none;stroke-width:1.49810755;fill-opacity:1"
   d="M 407.41695,132.9817 V 79.049823 h 40.44891 40.4489 v 11.984861 11.984856 h -26.96594 -26.96593 v 8.2396 8.23959 h 22.47161 22.47162 v 12.73391 12.73392 H 456.8545 434.38289 v 8.23959 8.23959 h 26.96593 26.96594 v 12.73392 12.73391 h -40.4489 -40.44891 z"
   id="path47590"
   inkscape:connector-curvature="0" /><path
   style="fill:#31455f;stroke:none;stroke-width:1.49810755;fill-opacity:1"
   d="M 498.80151,132.9817 V 79.049823 h 12.5699 12.5699 l 23.01016,29.947407 23.01015,29.94741 0.40555,-29.94741 0.40555,-29.947407 h 13.45194 13.45195 v 53.931877 53.93187 l -12.35938,-0.0207 -12.35939,-0.0207 -23.22067,-30.20704 -23.22067,-30.20703 -0.40554,30.22778 -0.40555,30.22779 h -13.45195 -13.45195 z"
   id="path47592"
   inkscape:connector-curvature="0" /><path
   style="fill:#31455f;stroke:none;stroke-width:1.49810755;fill-opacity:1"
   d="m 637.70231,186.77638 c -12.06427,-2.8408 -22.91115,-10.94587 -28.08948,-20.98918 l -2.7823,-5.39625 13.77486,-2.91604 13.77486,-2.91605 2.70201,3.40733 c 5.25818,6.63072 20.47007,7.829 25.72158,2.02615 4.67535,-5.16621 -0.66108,-9.95335 -16.25624,-14.58295 -17.25503,-5.12235 -30.30637,-14.15412 -33.7946,-23.3865 -2.04923,-5.42373 -2.05114,-19.09233 -0.003,-24.523722 2.26096,-5.997028 10.13093,-13.850889 17.13635,-17.101272 7.22735,-3.35336 25.60357,-3.735469 34.08499,-0.708751 10.09515,3.602604 22.06798,15.128818 22.08844,21.264485 0.003,0.92744 -5.73464,2.73338 -12.8147,4.03341 -12.3711,2.27156 -12.92227,2.25208 -15.73013,-0.55578 -1.97876,-1.97876 -4.97106,-2.90982 -9.35169,-2.90982 -7.215,0 -10.03732,1.96902 -10.03732,7.00263 0,4.14346 3.61193,6.09992 21.25838,11.51492 20.29519,6.22779 30.11583,15.28098 32.07402,29.56751 2.91353,21.25651 -15.82558,39.14362 -40.49587,38.65469 -4.17623,-0.0828 -10.14312,-0.75093 -13.25974,-1.48481 z"
   id="path47594"
   inkscape:connector-curvature="0" /><path
   style="fill:#31455f;stroke:none;stroke-width:1.49810755;fill-opacity:1"
   d="M 307.04374,132.9817 V 79.049823 l 29.58763,0.06576 c 31.84743,0.07078 36.6853,0.916641 46.03645,8.049112 2.86381,2.184337 7.07587,7.150883 9.36013,11.036769 5.43882,9.252296 5.83631,24.708856 0.87516,34.031176 -7.71561,14.49813 -19.23614,20.26719 -42.69282,21.37899 l -16.20061,0.76788 v 16.26703 16.26703 h -13.48297 -13.48297 z m 57.74524,-8.1715 c 2.4497,-2.4497 3.66127,-5.32517 3.62953,-8.61412 -0.0947,-9.80878 -5.80078,-13.17654 -22.32548,-13.17654 h -12.08335 v 12.73392 12.73391 h 13.55106 c 12.39008,0 13.86611,-0.31504 17.22824,-3.67717 z"
   id="path47596"
   inkscape:connector-curvature="0" /><path
   style="fill:#31455f;stroke:none;stroke-width:1.49810755;fill-opacity:1"
   d="M 702.54415,132.9817 V 79.049823 h 13.48296 13.48297 v 53.931877 53.93187 h -13.48297 -13.48296 z"
   id="path47598"
   inkscape:connector-curvature="0" /><path
   style="fill:#31455f;stroke:none;stroke-width:1.49810755;fill-opacity:1"
   d="m 781.98017,186.10645 c -17.12438,-4.80292 -31.66713,-17.72008 -37.54395,-33.34729 -4.44373,-11.81646 -4.41376,-29.31591 0.0706,-41.2418 3.98964,-10.61013 16.812,-24.305337 27.31996,-29.179678 28.69131,-13.309087 64.4417,-1.175986 77.64124,26.350168 4.5951,9.5826 5.70442,29.47507 2.29727,41.19526 -4.23238,14.55887 -18.86047,29.61616 -33.86689,34.86057 -9.95186,3.47795 -26.18133,4.09371 -35.91826,1.36277 z m 28.27973,-26.83134 c 6.3035,-3.25967 13.35575,-12.06713 14.48587,-18.09123 1.85187,-9.87129 0.0139,-21.01219 -4.42673,-26.83429 -10.18449,-13.35255 -30.0549,-15.306744 -41.87968,-4.11873 -6.61626,6.25997 -8.99694,12.07852 -9.02066,22.04708 -0.0419,17.60937 11.00125,29.12597 27.95515,29.15363 4.77868,0.008 10.57741,-0.96262 12.88605,-2.15646 z"
   id="path47600"
   inkscape:connector-curvature="0" /><path
   style="fill:#31455f;stroke:none;stroke-width:1.49810755;fill-opacity:1"
   d="M 865.83787,132.9817 V 79.049823 l 12.35939,0.05085 12.35939,0.05085 23.22067,30.285827 23.22066,30.28583 0.40555,-30.33668 0.40555,-30.336673 h 12.70289 12.7029 V 132.9817 186.91357 H 951.32195 939.42903 L 916.7339,157.32594 c -12.48233,-16.27319 -23.31008,-29.81234 -24.06167,-30.08699 -0.79451,-0.29034 -1.36653,12.09473 -1.36653,29.58763 v 30.08699 h -12.73391 -12.73392 z"
   id="path47602"
   inkscape:connector-curvature="0" /><path
   style="fill:#31455f;stroke:none;stroke-width:1.49810755;fill-opacity:1"
   d="m 290.56456,300.40605 c 0,-0.27867 9.04226,-21.37798 20.09392,-46.88735 l 20.09391,-46.38068 h 7.8072 7.80719 l 20.03833,46.34204 c 11.02108,25.48812 20.03833,46.58743 20.03833,46.88735 0,0.29992 -4.10675,0.3446 -9.12611,0.0993 l -9.12612,-0.44601 -3.47672,-8.23959 -3.47671,-8.23959 H 338.504 315.77023 l -3.47672,8.23959 -3.47671,8.23959 -9.12612,0.44601 c -5.01937,0.24531 -9.12612,0.21802 -9.12612,-0.0607 z m 62.92052,-33.92211 c 0,-2.40374 -13.8484,-34.62714 -14.88143,-34.62714 -0.96331,0 -15.08072,32.65724 -15.08072,34.88563 0,0.58792 6.74148,1.06895 14.98107,1.06895 8.23959,0 14.98108,-0.59735 14.98108,-1.32744 z"
   id="path47604"
   inkscape:connector-curvature="0" /><path
   style="fill:#31455f;stroke:none;stroke-width:1.49810755;fill-opacity:1"
   d="m 398.42831,253.57936 v -47.19039 h 25.45175 c 21.18144,0 26.68156,0.46728 32.78153,2.78509 26.15277,9.93727 38.34496,39.49659 26.65753,64.62975 -4.49437,9.6649 -15.78949,20.12724 -25.75447,23.85561 -7.21477,2.6994 -11.67043,3.11033 -33.72471,3.11033 h -25.41163 z m 54.03047,28.08951 c 22.33872,-11.32492 23.11509,-43.68033 1.33813,-55.76676 -5.59558,-3.10559 -9.17312,-3.80204 -22.03571,-4.28971 l -15.3556,-0.58219 v 32.37923 32.37923 h 13.96339 c 12.26401,0 14.95239,-0.50139 22.08979,-4.1198 z"
   id="path47606"
   inkscape:connector-curvature="0" /><path
   style="fill:#31455f;stroke:none;stroke-width:1.49810755;fill-opacity:1"
   d="m 513.1865,255.71932 c -10.48059,-24.77773 -19.42515,-46.0134 -19.8768,-47.19039 -0.65537,-1.70788 0.99206,-2.13996 8.15918,-2.13996 h 8.98036 l 3.92162,9.36317 c 2.15689,5.14975 8.53754,20.48662 14.17922,34.08195 5.64168,13.59532 10.84424,24.61189 11.56123,24.48126 0.717,-0.13064 7.49385,-15.29898 15.05966,-33.70742 l 13.75604,-33.46991 9.28139,-0.4499 c 5.41613,-0.26254 9.06297,0.14214 8.7569,0.97173 -0.28847,0.7819 -9.27906,22.0515 -19.97909,47.26577 l -19.4546,45.84413 h -7.64475 -7.64475 z"
   id="path47608"
   inkscape:connector-curvature="0" /><path
   style="fill:#31455f;stroke:none;stroke-width:1.49810755;fill-opacity:1"
   d="m 616.32336,254.32841 c 0,-26.77867 0.20315,-37.73358 0.45144,-24.34425 0.24829,13.38934 0.24829,35.29916 0,48.6885 -0.24829,13.38934 -0.45144,2.43442 -0.45144,-24.34425 z"
   id="path47610"
   inkscape:connector-curvature="0" /><path
   style="fill:#31455f;stroke:none;stroke-width:1.49810755;fill-opacity:1"
   d="m 599.17472,254.32841 v -47.93944 h 8.23959 8.2396 v 47.93944 47.93944 h -8.2396 -8.23959 z"
   id="path47612"
   inkscape:connector-curvature="0" /><path
   style="fill:#31455f;stroke:none;stroke-width:1.49810755;fill-opacity:1"
   d="m 654.86435,301.54271 c -3.56501,-1.11254 -8.97234,-3.74873 -12.01628,-5.85818 -5.8539,-4.05675 -11.4523,-11.98517 -10.05706,-14.24273 0.45702,-0.73947 4.29556,-2.17565 8.53008,-3.19149 6.90089,-1.6555 7.84926,-1.5787 9.14728,0.74073 1.90242,3.39943 12.68359,8.22994 18.36836,8.22994 7.11166,0 16.97798,-5.15701 18.05181,-9.43545 2.02619,-8.07298 -2.7268,-11.72909 -23.39553,-17.99638 -21.79626,-6.60919 -29.09638,-13.56287 -29.01104,-27.63424 0.0313,-5.1658 1.08952,-10.49435 2.67935,-13.49195 3.386,-6.38426 14.43352,-13.36121 23.25585,-14.687 14.21449,-2.1361 31.93155,5.14425 38.02587,15.62571 l 2.64038,4.54112 -8.33894,2.42419 c -8.30228,2.41354 -8.3582,2.408 -12.71672,-1.25945 -2.40778,-2.02601 -6.41637,-4.13141 -8.90799,-4.67866 -14.12762,-3.10294 -25.52653,9.27508 -15.67653,17.02309 2.10911,1.65903 10.36743,5.06318 18.35182,7.56477 17.10168,5.35814 23.20967,8.8234 27.25907,15.46495 3.97348,6.51703 3.98541,18.77718 0.0258,26.53862 -6.94209,13.60762 -27.79658,20.07051 -46.21561,14.32241 z"
   id="path47614"
   inkscape:connector-curvature="0" /><path
   style="fill:#31455f;stroke:none;stroke-width:1.49810755;fill-opacity:1"
   d="m 719.02333,252.8303 v -47.93944 h 35.95458 35.95458 v 8.23959 8.23959 h -26.96593 -26.96594 v 11.98486 11.98487 h 23.22067 23.22067 v 7.49053 7.49054 h -23.22067 -23.22067 v 12.73392 12.73391 h 26.96594 26.96593 v 7.49054 7.49054 h -35.95458 -35.95458 z"
   id="path47616"
   inkscape:connector-curvature="0" /><path
   style="fill:#31455f;stroke:none;stroke-width:1.49810755;fill-opacity:1"
   d="m 805.91357,253.57936 v -47.19039 h 27.04033 c 29.2208,0 32.08184,0.6148 40.88278,8.78514 6.39147,5.93352 8.96428,12.01145 8.96428,21.17701 0,10.18247 -2.94853,16.13155 -11.56499,23.33402 l -6.58707,5.50611 10.33218,17.10808 c 5.68271,9.40945 10.33219,17.41461 10.33219,17.78925 0,0.37464 -4.21343,0.66624 -9.36317,0.648 l -9.36317,-0.0332 -9.69646,-16.44602 -9.69645,-16.44602 h -12.40063 -12.40064 v 16.47918 16.47919 h -8.23959 -8.23959 z m 54.04711,-6.62625 c 5.74499,-5.74499 6.06895,-14.46098 0.7668,-20.63068 -3.51435,-4.08938 -4.08295,-4.21698 -20.9735,-4.70678 l -17.36123,-0.50344 v 15.10999 15.11 h 16.59443 c 16.34372,0 16.66057,-0.0662 20.9735,-4.37909 z"
   id="path47618"
   inkscape:connector-curvature="0" /><path
   style="fill:#31455f;stroke:none;stroke-width:1.49810755;fill-opacity:1"
   d="m 920.26709,302.32883 c -6.96199,-1.65823 -17.85767,-8.45288 -21.12731,-13.1752 -5.2815,-7.62801 -5.30334,-7.55945 3.26811,-10.26136 l 8.17477,-2.57687 5.22143,4.58449 c 11.5946,10.18019 33.92781,6.38087 33.92781,-5.7718 0,-6.18143 -4.11379,-9.06 -20.73228,-14.50716 -16.93526,-5.55099 -23.35268,-9.34689 -28.42768,-16.81492 -2.95455,-4.34773 -3.43972,-6.62645 -2.93793,-13.79885 0.70684,-10.10349 5.89811,-17.74029 15.47408,-22.76369 8.30559,-4.35698 25.89704,-4.21975 34.51849,0.26929 5.96366,3.10517 15.58829,12.57093 15.58829,15.33097 0,0.75318 -3.72325,2.54307 -8.27388,3.97753 -8.17662,2.57745 -8.29994,2.5709 -10.4914,-0.55785 -6.7543,-9.64313 -29.21022,-6.75033 -29.15123,3.75529 0.0126,2.24689 0.51823,4.83388 1.12358,5.74886 1.75494,2.65256 9.12774,5.91801 22.8232,10.10851 16.13697,4.93755 21.58413,8.33019 25.4074,15.82443 10.46928,20.52148 -6.96173,42.53536 -33.1868,41.91211 -3.54894,-0.0843 -8.58833,-0.66204 -11.19865,-1.28378 z"
   id="path47620"
   inkscape:connector-curvature="0" /></svg>